<svg width="18" height="34" viewBox="0 0 18 34" fill="none" xmlns="http://www.w3.org/2000/svg">
<path d="M12.1877 25.4337C12.1877 28.1032 12.1811 30.7661 12.1943 33.4356C12.1943 33.7278 12.1147 33.8075 11.8225 33.8008C9.55137 33.7876 7.28692 33.7876 5.01582 33.8008C4.70371 33.8008 4.6041 33.7278 4.6041 33.4024C4.61738 28.1098 4.61074 22.8239 4.61074 17.5313C4.61074 17.0001 4.67051 17.0665 4.12598 17.0598C3.16309 17.0598 2.2002 17.0532 1.2373 17.0665C1.00488 17.0665 0.938477 16.9934 0.938477 16.761C0.945117 15.0809 0.945117 13.3942 0.938477 11.7141C0.938477 11.4817 1.00488 11.4087 1.2373 11.4153C2.24668 11.4286 3.24941 11.4087 4.25879 11.4286C4.53106 11.4352 4.61738 11.3622 4.61738 11.0766C4.6041 9.66218 4.61738 8.24109 4.61074 6.82664C4.6041 5.65125 4.7834 4.5157 5.37441 3.47976C6.01191 2.35086 6.96816 1.5739 8.1502 1.06922C9.14629 0.644215 10.1955 0.444996 11.2713 0.385231C13.4029 0.265699 15.5412 0.365309 17.6729 0.325465C17.9119 0.318824 17.9717 0.405153 17.9717 0.630934C17.965 2.37742 17.965 4.13054 17.9717 5.87703C17.9717 6.14265 17.8721 6.1825 17.6397 6.1825C16.4111 6.17586 15.1826 6.17586 13.9541 6.17586C12.9314 6.17586 12.1943 6.91296 12.1943 7.92234C12.1943 8.96492 12.2076 10.0009 12.1877 11.0434C12.1811 11.3423 12.2807 11.4153 12.5662 11.4153C14.2463 11.402 15.933 11.4153 17.6131 11.402C17.892 11.402 17.985 11.4817 17.9518 11.7606C17.8522 12.6173 17.7658 13.4739 17.6729 14.3305C17.5865 15.154 17.4404 15.9708 17.3076 16.7876C17.2678 17.02 17.1947 17.0731 16.9822 17.0731C15.5412 17.0665 14.1068 17.0665 12.6658 17.0731C12.1014 17.0731 12.1811 17.0001 12.1811 17.5712C12.1877 20.1876 12.1877 22.8106 12.1877 25.4337Z" fill="#150068"/>
</svg>
