<svg width="32" height="32" viewBox="0 0 32 32" fill="none" xmlns="http://www.w3.org/2000/svg">
<path d="M20.9865 16C20.9865 16.9863 20.694 17.9504 20.1461 18.7704C19.5982 19.5905 18.8193 20.2296 17.9081 20.6071C16.997 20.9845 15.9943 21.0833 15.027 20.8908C14.0597 20.6984 13.1711 20.2235 12.4737 19.5261C11.7763 18.8287 11.3014 17.9402 11.109 16.9728C10.9166 16.0055 11.0153 15.0029 11.3928 14.0917C11.7702 13.1805 12.4093 12.4017 13.2294 11.8537C14.0494 11.3058 15.0136 11.0133 15.9998 11.0133C17.3219 11.0148 18.5894 11.5407 19.5243 12.4756C20.4591 13.4104 20.985 14.6779 20.9865 16ZM31.5832 9.14332V22.8567C31.5805 25.1703 30.6603 27.3884 29.0243 29.0244C27.3883 30.6604 25.1702 31.5807 22.8565 31.5833H9.14317C6.82952 31.5807 4.61138 30.6604 2.97538 29.0244C1.33938 27.3884 0.419124 25.1703 0.416504 22.8567V9.14332C0.419124 6.82967 1.33938 4.61153 2.97538 2.97553C4.61138 1.33953 6.82952 0.419277 9.14317 0.416656H22.8565C25.1702 0.419277 27.3883 1.33953 29.0243 2.97553C30.6603 4.61153 31.5805 6.82967 31.5832 9.14332ZM23.4798 16C23.4798 14.5206 23.0411 13.0744 22.2192 11.8443C21.3973 10.6142 20.2291 9.65551 18.8623 9.08937C17.4955 8.52323 15.9915 8.3751 14.5406 8.66372C13.0896 8.95233 11.7568 9.66473 10.7107 10.7108C9.66458 11.7569 8.95218 13.0897 8.66356 14.5407C8.37495 15.9917 8.52307 17.4957 9.08922 18.8625C9.65536 20.2293 10.6141 21.3975 11.8442 22.2194C13.0743 23.0413 14.5204 23.48 15.9998 23.48C17.983 23.4777 19.8842 22.689 21.2865 21.2867C22.6888 19.8844 23.4776 17.9831 23.4798 16ZM25.9732 7.89666C25.9732 7.52681 25.8635 7.16526 25.658 6.85774C25.4525 6.55022 25.1605 6.31054 24.8188 6.169C24.4771 6.02747 24.1011 5.99043 23.7383 6.06259C23.3756 6.13474 23.0424 6.31284 22.7809 6.57437C22.5194 6.83589 22.3413 7.16909 22.2691 7.53184C22.1969 7.89458 22.234 8.27058 22.3755 8.61227C22.517 8.95397 22.7567 9.24603 23.0643 9.4515C23.3718 9.65698 23.7333 9.76666 24.1032 9.76666C24.5991 9.76666 25.0748 9.56964 25.4255 9.21895C25.7761 8.86825 25.9732 8.39261 25.9732 7.89666Z" fill="#150068"/>
</svg>
