<svg width="34" height="29" viewBox="0 0 34 29" fill="none" xmlns="http://www.w3.org/2000/svg">
<path d="M0.0471007 25.4008C3.78824 25.7435 7.15931 24.784 10.2276 22.4402C7.01801 22.1524 4.87156 20.5213 3.67386 17.4647C4.72353 17.5949 5.70592 17.6292 6.74886 17.3414C3.29032 16.2449 1.44667 13.9422 1.1977 10.2277C2.23392 10.7211 3.20958 11.0775 4.36018 11.0912C2.30794 9.5218 1.25826 7.48638 1.29863 4.92326C1.31882 3.7445 1.62834 2.63427 2.24065 1.58572C6.04235 6.11573 10.813 8.62402 16.6871 9.04207C16.6535 8.78165 16.6333 8.57605 16.6064 8.3636C16.1219 4.56689 18.5442 1.11284 22.245 0.393252C24.5664 -0.0590636 26.6186 0.564584 28.3546 2.19566C28.6238 2.44238 28.8526 2.4972 29.189 2.40811C30.5415 2.0586 31.8266 1.55145 33.0714 0.866127C32.5937 2.46979 31.6113 3.67597 30.279 4.69025C30.5818 4.63542 30.8914 4.5943 31.1941 4.53262C31.5104 4.46409 31.8266 4.38871 32.1429 4.29961C32.4457 4.21737 32.7417 4.12143 33.0378 4.01863C33.3406 3.91583 33.6434 3.79932 34 3.73765C33.8251 3.98436 33.6568 4.24479 33.4684 4.48465C32.6879 5.49208 31.7863 6.37615 30.7972 7.16428C30.6962 7.24652 30.6087 7.4247 30.6155 7.54806C30.6693 9.98097 30.3329 12.3522 29.5591 14.6549C28.0384 19.1918 25.3873 22.8651 21.4106 25.4899C19.4459 26.7852 17.2994 27.635 15.0049 28.1284C12.7307 28.615 10.4429 28.7041 8.14843 28.43C5.84722 28.1558 3.6604 27.4636 1.60142 26.3808C1.0564 26.0998 0.531565 25.7846 0 25.4831C0.020186 25.4556 0.0336434 25.4282 0.0471007 25.4008Z" fill="#150068"/>
</svg>
