<svg width="113" height="133" viewBox="0 0 113 133" fill="none" xmlns="http://www.w3.org/2000/svg">
<g filter="url(#filter0_d)">
<path d="M90 44.6111C90 63.7263 55.5 99 55.5 99C55.5 99 21 63.7263 21 44.6111C21 25.4959 36.4462 10 55.5 10C74.5538 10 90 25.4959 90 44.6111Z" fill="#FCFCFC"/>
</g>
<path d="M74.7021 58.1867L71.9304 34.4105C71.8868 25.9267 64.766 19.0381 56.0195 19.0381C47.273 19.0381 40.1522 25.9271 40.1091 34.4105L37.337 58.1867C37.2906 58.5845 37.4282 58.9819 37.7132 59.2712C37.9982 59.561 38.4019 59.7154 38.8115 59.6857C38.8403 59.6839 41.675 59.5012 44.2279 59.5012C46.0274 59.5012 46.9218 59.5912 47.3555 59.6672C49.5271 60.0461 53.7659 62.7173 55.216 63.715C55.4569 63.8801 55.7382 63.9634 56.0195 63.9634C56.3013 63.9634 56.584 63.8797 56.8249 63.7132C58.2295 62.7434 62.3414 60.1384 64.4699 59.7388C64.9597 59.647 65.9959 59.5376 68.1531 59.5376C70.6347 59.5376 73.2122 59.6848 73.2377 59.6866C73.645 59.705 74.0463 59.5565 74.329 59.2676C74.6117 58.9787 74.7484 58.5827 74.7021 58.1867ZM68.1531 56.8376C66.2174 56.8376 64.8406 56.9195 63.9421 57.0883C61.4489 57.5563 57.6915 59.8774 56.0177 60.974C54.304 59.8553 50.4066 57.4568 47.8467 57.0095C47.0427 56.8691 45.8587 56.8012 44.227 56.8012C42.8201 56.8012 41.3608 56.8525 40.2838 56.9024L42.8799 34.6405C42.8859 34.5901 42.8887 34.5392 42.8887 34.4888C42.8887 27.458 48.7787 21.7385 56.0191 21.7385C63.259 21.7385 69.1494 27.458 69.1494 34.4888C69.1494 34.5397 69.1527 34.5905 69.1582 34.6405L71.7552 56.9146C70.7709 56.8759 69.4609 56.8376 68.1531 56.8376Z" fill="#0F0049"/>
<path d="M47.678 36.1549C49.0536 36.1549 50.1688 35.072 50.1688 33.7361C50.1688 32.4003 49.0536 31.3174 47.678 31.3174C46.3023 31.3174 45.1871 32.4003 45.1871 33.7361C45.1871 35.072 46.3023 36.1549 47.678 36.1549Z" fill="#0F0049"/>
<path d="M64.361 36.1549C65.7366 36.1549 66.8518 35.072 66.8518 33.7361C66.8518 32.4003 65.7366 31.3174 64.361 31.3174C62.9853 31.3174 61.8701 32.4003 61.8701 33.7361C61.8701 35.072 62.9853 36.1549 64.361 36.1549Z" fill="#0F0049"/>
<path d="M56.0195 52.8232L62.2236 37.2222H49.8143L56.0195 52.8232ZM56.0195 45.3289L53.8692 39.9222H58.1697L56.0195 45.3289Z" fill="#0F0049"/>
<defs>
<filter id="filter0_d" x="0" y="0" width="113" height="133" filterUnits="userSpaceOnUse" color-interpolation-filters="sRGB">
<feFlood flood-opacity="0" result="BackgroundImageFix"/>
<feColorMatrix in="SourceAlpha" type="matrix" values="0 0 0 0 0 0 0 0 0 0 0 0 0 0 0 0 0 0 127 0"/>
<feOffset dx="1" dy="12"/>
<feGaussianBlur stdDeviation="11"/>
<feColorMatrix type="matrix" values="0 0 0 0 0 0 0 0 0 0 0 0 0 0 0 0 0 0 0.09 0"/>
<feBlend mode="normal" in2="BackgroundImageFix" result="effect1_dropShadow"/>
<feBlend mode="normal" in="SourceGraphic" in2="effect1_dropShadow" result="shape"/>
</filter>
</defs>
</svg>
